# xmcd CD database file
#
# Track frame offsets:
#	150
#	12991
#	25582
#	37554
#	48725
#	57428
#	67186
#	77301
#	87849
#	100547
#
# Disc length: 1518 seconds
#
# Revision: 0
# Processed by: cddbd v1.5.1PL2 Copyright (c) Steve Scherf et al.
# Submitted via: CDex 1.70beta2
#
DISCID=6b05ec0a
DTITLE=Various Artist - That's Country - All-Time Hits
DYEAR=2004
DGENRE=Country
TTITLE0=Pee Wee King - Slow Poke
TTITLE1=Carl Smith - Let Old Mother Nature Have Her Way
TTITLE2=Hank Thompson - The Wild Side Of Life
TTITLE3=Ray Price - Crazy Arms
TTITLE4=Faron Young - Alone With You
TTITLE5=Hank Locklin - Please Help Me I'm Falling
TTITLE6=Connie Smith - Once A Day
TTITLE7=Ferlin Husky - Wings Of A Dove
TTITLE8=Claude King - Wolverton Mountain
TTITLE9=David Houston - Almost Persuaded
EXTD=YEAR: 2004
EXTT0=
EXTT1=
EXTT2=
EXTT3=
EXTT4=
EXTT5=
EXTT6=
EXTT7=
EXTT8=
EXTT9=
PLAYORDER=
